<?xml version="1.0" encoding="UTF-8" standalone="no"?>
<svg
   xmlns:dc="http://purl.org/dc/elements/1.1/"
   xmlns:cc="http://creativecommons.org/ns#"
   xmlns:rdf="http://www.w3.org/1999/02/22-rdf-syntax-ns#"
   xmlns:svg="http://www.w3.org/2000/svg"
   xmlns="http://www.w3.org/2000/svg"
   xmlns:xlink="http://www.w3.org/1999/xlink"
   xmlns:sodipodi="http://sodipodi.sourceforge.net/DTD/sodipodi-0.dtd"
   xmlns:inkscape="http://www.inkscape.org/namespaces/inkscape"
   viewBox="0 0 146 64"
   enable-background="new 0 0 64 64"
   version="1.1"
   id="svg33"
   sodipodi:docname="Emojione_1F6F0.svg"
   width="146"
   height="64"
   inkscape:version="0.92.4 (5da689c313, 2019-01-14)">
  <metadata
     id="metadata39">
    <rdf:RDF>
      <cc:Work
         rdf:about="">
        <dc:format>image/svg+xml</dc:format>
        <dc:type
           rdf:resource="http://purl.org/dc/dcmitype/StillImage" />
        <dc:title></dc:title>
      </cc:Work>
    </rdf:RDF>
  </metadata>
  <defs
     id="defs37">
    <linearGradient
       id="linearGradient15220">
      <stop
         offset="0"
         style="stop-color:#aadfff;stop-opacity:1"
         id="stop15222" />
      <stop
         offset="0.48252198"
         style="stop-color:#cae8ff;stop-opacity:1"
         id="stop15224" />
      <stop
         offset="1"
         style="stop-color:#aadfff;stop-opacity:1"
         id="stop15226" />
    </linearGradient>
    <linearGradient
       id="linearGradient15173">
      <stop
         offset="0"
         style="stop-color:#4a9eda;stop-opacity:1"
         id="stop15175" />
      <stop
         offset="0.52705538"
         style="stop-color:#7ec9fd;stop-opacity:1"
         id="stop15181" />
      <stop
         offset="1"
         style="stop-color:#4a9eda;stop-opacity:1"
         id="stop15177" />
    </linearGradient>
    <linearGradient
       gradientTransform="matrix(-1,0,0,1,233.40848,-0.12447034)"
       gradientUnits="userSpaceOnUse"
       xlink:href="#linearGradient15173"
       id="linearGradient15179"
       y2="235.08801"
       x2="45.403915"
       y1="1.0837754"
       x1="47.472637" />
    <linearGradient
       gradientTransform="translate(0,-0.12447034)"
       gradientUnits="userSpaceOnUse"
       xlink:href="#linearGradient15173-8"
       id="linearGradient15179-0"
       y2="235.08801"
       x2="45.403915"
       y1="1.0837754"
       x1="47.472637" />
    <linearGradient
       id="linearGradient15173-8">
      <stop
         offset="0"
         style="stop-color:#79c2f3;stop-opacity:1"
         id="stop15175-1" />
      <stop
         offset="0.52705538"
         style="stop-color:#aadbff;stop-opacity:1"
         id="stop15181-5" />
      <stop
         offset="1"
         style="stop-color:#79c2f3;stop-opacity:1"
         id="stop15177-5" />
    </linearGradient>
    <linearGradient
       gradientTransform="matrix(-0.81644469,0,0,0.81644469,151.6944,23.356989)"
       gradientUnits="userSpaceOnUse"
       xlink:href="#linearGradient15173-8"
       id="linearGradient15199"
       y2="235.08801"
       x2="45.403915"
       y1="1.0837754"
       x1="47.472637" />
    <linearGradient
       gradientTransform="matrix(0.81644469,0,0,0.81644469,81.71408,23.356989)"
       gradientUnits="userSpaceOnUse"
       xlink:href="#linearGradient15173-8"
       id="linearGradient15199-7"
       y2="235.08801"
       x2="45.403915"
       y1="1.0837754"
       x1="47.472637" />
    <linearGradient
       gradientTransform="matrix(-0.62201984,0,0,0.62201984,85.462056,45.493213)"
       gradientUnits="userSpaceOnUse"
       xlink:href="#linearGradient15220"
       id="linearGradient15244"
       y2="235.08801"
       x2="45.403915"
       y1="1.0837754"
       x1="47.472637" />
    <linearGradient
       gradientTransform="matrix(-1,0,0,1,233.40848,-0.12447034)"
       gradientUnits="userSpaceOnUse"
       xlink:href="#linearGradient15173"
       id="linearGradient15179-7"
       y2="235.08801"
       x2="45.403915"
       y1="1.0837754"
       x1="47.472637" />
    <linearGradient
       gradientTransform="matrix(-0.81644469,0,0,0.81644469,151.6944,23.356989)"
       gradientUnits="userSpaceOnUse"
       xlink:href="#linearGradient15173-8"
       id="linearGradient15199-0"
       y2="235.08801"
       x2="45.403915"
       y1="1.0837754"
       x1="47.472637" />
    <linearGradient
       gradientTransform="matrix(-0.62201984,0,0,0.62201984,85.462056,45.493213)"
       gradientUnits="userSpaceOnUse"
       xlink:href="#linearGradient15220"
       id="linearGradient15244-2"
       y2="235.08801"
       x2="45.403915"
       y1="1.0837754"
       x1="47.472637" />
  </defs>
  <sodipodi:namedview
     pagecolor="#ffffff"
     bordercolor="#666666"
     borderopacity="1"
     objecttolerance="10"
     gridtolerance="10"
     guidetolerance="10"
     inkscape:pageopacity="0"
     inkscape:pageshadow="2"
     inkscape:window-width="1920"
     inkscape:window-height="1017"
     id="namedview35"
     showgrid="false"
     inkscape:zoom="5.2149125"
     inkscape:cx="37.405867"
     inkscape:cy="39.538563"
     inkscape:window-x="-8"
     inkscape:window-y="-8"
     inkscape:window-maximized="1"
     inkscape:current-layer="svg33" />
  <g
     id="g3760"
     transform="translate(40.973385,-0.43968009)">
    <path
       style="fill:#d0d0d0"
       inkscape:connector-curvature="0"
       id="path2"
       d="m 24.4,24.4 c 3.2,-3.2 3.2,-8.4 0,-11.6 L 12.8,24.4 c 3.2,3.2 8.4,3.2 11.6,0" />
    <path
       style="fill:#94989b"
       inkscape:connector-curvature="0"
       id="path4"
       d="m 27,27 c -4.3,4.3 -4.3,4.3 -6,2.6 -1.7,-1.7 -1.7,-1.7 2.6,-6 4.3,-4.3 4.3,-4.3 6,-2.6 1.7,1.7 1.7,1.7 -2.6,6" />
    <path
       style="fill:#7f8285"
       inkscape:connector-curvature="0"
       id="path6"
       d="m 37.2,37.2 c -4.3,4.3 -4.3,4.3 -6,2.6 -0.4,-0.4 -6.6,-6.6 -6.9,-6.9 -1.7,-1.7 -1.7,-1.7 2.6,-6 4.3,-4.3 4.3,-4.3 6,-2.6 0.4,0.4 6.6,6.6 6.9,6.9 1.7,1.7 1.7,1.7 -2.6,6" />
    <path
       style="fill:#646669"
       inkscape:connector-curvature="0"
       id="path8"
       d="m 39.6,39.6 c -3.2,3.2 -3.2,3.2 -4.5,1.9 -1.3,-1.3 -1.3,-1.3 1.9,-4.5 3.2,-3.2 3.2,-3.2 4.5,-1.9 1.3,1.2 1.3,1.2 -1.9,4.5" />
    <path
       style="fill:#94989b"
       inkscape:connector-curvature="0"
       id="path10"
       d="m 22.2,15 -7.1,-1.3 c 0,-0.3 -0.1,-0.5 -0.3,-0.7 -0.4,-0.4 -1.2,-0.4 -1.6,0 -0.4,0.4 -0.4,1.2 0,1.6 0.2,0.2 0.4,0.3 0.6,0.3 l 1.4,7.2 0.8,-0.8 h -0.2 l -1.2,-6.5 c 0.1,-0.1 0.2,-0.1 0.3,-0.2 C 15,14.5 15,14.5 15,14.4 l 6.5,1.2 v 0.2 L 22.2,15" />
    <g
       style="fill:#3e4347"
       id="g16">
      <path
         inkscape:connector-curvature="0"
         id="path12"
         d="M 25.9,36.4 H 28 v 1.3 h -2.1 z"
         transform="matrix(0.7073,-0.7069,0.7069,0.7073,-18.2947,29.8994)" />
      <path
         inkscape:connector-curvature="0"
         id="path14"
         d="m 36,26.3 h 2.1 v 1.3 H 36 Z"
         transform="matrix(0.7071,-0.7071,0.7071,0.7071,-8.1867,34.0994)" />
    </g>
    <path
       style="fill:#428bc1"
       inkscape:connector-curvature="0"
       id="0"
       d="m 31.1,42.6 c 0.2,0.2 0.2,0.5 0,0.7 L 12.5,61.9 c -0.2,0.2 -0.5,0.2 -0.7,0 L 2.1,52.2 C 2,52 2,51.7 2.1,51.5 L 20.7,32.9 c 0.2,-0.2 0.5,-0.2 0.7,0 l 9.7,9.7" />
    <use
       height="100%"
       width="100%"
       y="0"
       x="0"
       id="use19"
       xlink:href="#0" />
    <path
       style="fill:#428bc1"
       inkscape:connector-curvature="0"
       id="path21"
       d="m 61.9,11.9 c 0.2,0.2 0.2,0.5 0,0.7 L 43.3,31.1 c -0.2,0.2 -0.5,0.2 -0.7,0 l -9.7,-9.7 c -0.2,-0.2 -0.2,-0.5 0,-0.7 L 51.5,2.1 C 51.7,2 52,2 52.1,2.1 l 9.8,9.8" />
    <g
       style="fill:#42ade2"
       id="g31">
      <path
         inkscape:connector-curvature="0"
         id="path23"
         d="M 3.3,51.8 4,52.5 h 16.4 l 5.1,-5.1 H 7.7 Z" />
      <path
         inkscape:connector-curvature="0"
         id="path25"
         d="M 29.2,42.3 H 12.8 l -2.5,2.6 H 28 L 29.9,43 Z" />
      <path
         inkscape:connector-curvature="0"
         id="path27"
         d="m 34.1,21 0.7,0.7 h 16.4 l 5.1,-5.1 H 38.5 Z" />
      <path
         inkscape:connector-curvature="0"
         id="path29"
         d="M 60,11.5 H 43.6 l -2.5,2.6 h 17.7 l 1.9,-1.9 z" />
    </g>
  </g>
  <g
     id="g3842"
     transform="matrix(0.20557889,0,0,0.20557889,-4.458721,8.2808781)">
    <path
       style="fill:url(#linearGradient15179);fill-opacity:1;stroke:none"
       id="path14663"
       d="m 207.34262,234.70467 -37.60255,0.28647 C 162.3019,224.59423 132.85549,197.5887 134.82797,109.40942 135.97598,58.08806 156.06988,14.381019 170.5433,0.00194316 l 36.56289,0.17042043 C 188.96367,36.338915 176.75694,74.54253 176.65,115.38399 c -0.12947,49.44993 14.98999,87.8398 30.69262,119.32068 z"
       inkscape:connector-curvature="0" />
    <path
       style="fill:url(#linearGradient15199);fill-opacity:1;stroke:none"
       id="path14663-5"
       d="m 127.40787,215.96587 -24.91097,0.0129 C 96.424036,207.49027 73.133976,185.48595 74.744396,113.49244 75.681686,71.591404 88.109776,37.321237 102.40139,23.106645 l 27.02315,-0.08183 c -14.10525,32.709969 -19.74035,61.647209 -19.82765,94.991995 -0.10571,40.37313 7.11197,72.60022 17.81098,97.94906 z"
       inkscape:connector-curvature="0" />
    <path
       style="fill:url(#linearGradient15244);fill-opacity:1;stroke:none"
       id="path14663-5-3"
       d="m 66.428696,190.99756 -20.03943,0.009 c -4.62669,-6.46708 -21.48667,-22.34748 -20.25975,-77.19675 0.71409,-31.922906 10.44777,-56.971451 21.33604,-67.801038 l 19.96924,-0.06235 c -10.74628,24.920552 -18.04729,45.203223 -17.58085,70.603218 0.4848,26.39983 7.19325,52.0021 16.57475,74.44792 z"
       inkscape:connector-curvature="0" />
  </g>
  <g
     id="g3842-3"
     transform="matrix(-0.20569923,0,0,-0.20569923,150.37622,56.418087)">
    <path
       style="fill:url(#linearGradient15179-7);fill-opacity:1;stroke:none"
       id="path14663-8"
       d="m 207.34262,234.70467 -37.60255,0.28647 C 162.3019,224.59423 132.85549,197.5887 134.82797,109.40942 135.97598,58.08806 156.06988,14.381019 170.5433,0.00194316 l 36.56289,0.17042043 C 188.96367,36.338915 176.75694,74.54253 176.65,115.38399 c -0.12947,49.44993 14.98999,87.8398 30.69262,119.32068 z"
       inkscape:connector-curvature="0" />
    <path
       style="fill:url(#linearGradient15199-0);fill-opacity:1;stroke:none"
       id="path14663-5-6"
       d="m 127.40787,215.96587 -24.91097,0.0129 C 96.424036,207.49027 73.133976,185.48595 74.744396,113.49244 75.681686,71.591404 88.109776,37.321237 102.40139,23.106645 l 27.02315,-0.08183 c -14.10525,32.709969 -19.74035,61.647209 -19.82765,94.991995 -0.10571,40.37313 7.11197,72.60022 17.81098,97.94906 z"
       inkscape:connector-curvature="0" />
    <path
       style="fill:url(#linearGradient15244-2);fill-opacity:1;stroke:none"
       id="path14663-5-3-4"
       d="m 66.428696,190.99756 -20.03943,0.009 c -4.62669,-6.46708 -21.48667,-22.34748 -20.25975,-77.19675 0.71409,-31.922906 10.44777,-56.971451 21.33604,-67.801038 l 19.96924,-0.06235 c -10.74628,24.920552 -18.04729,45.203223 -17.58085,70.603218 0.4848,26.39983 7.19325,52.0021 16.57475,74.44792 z"
       inkscape:connector-curvature="0" />
  </g>
</svg>
